# Blender v2.79 (sub 0) OBJ File: 'secondScene.blend'
# www.blender.org
mtllib redGuy2.mtl
o LegLeft1_Untitled.001
v -2.133321 0.527727 2.038737
v -1.781970 0.527687 1.913707
v -2.131785 1.102552 2.043054
v -1.780375 1.102470 1.918187
v -2.256735 1.104209 1.691908
v -1.905321 1.104245 1.567056
v -2.256866 0.560892 1.691539
v -1.905512 0.560932 1.566520
v -2.182020 -0.043381 1.901878
v -1.830890 -0.043508 1.776228
v -2.302847 0.050760 1.562321
v -1.951698 0.051056 1.436724
vt 0.839335 0.203811
vt 0.908730 0.203811
vt 0.908730 0.307904
vt 0.839335 0.307904
vt 0.908730 0.377299
vt 0.839335 0.377299
vt 0.769940 0.307904
vt 0.700545 0.307904
vt 0.700545 0.203811
vt 0.769940 0.203811
vt 0.978126 0.203811
vt 0.978126 0.307904
vt 0.839335 0.099718
vt 0.908731 0.099718
vt 0.700545 0.099718
vt 0.769940 0.099718
vt 0.978126 0.099718
vt 0.839335 0.030323
vt 0.908730 0.030323
vn 0.3327 -0.1285 0.9342
vn 0.3350 -0.0081 0.9422
vn 0.0016 1.0000 0.0043
vn -0.3350 0.0009 -0.9422
vn -0.3326 0.1317 -0.9338
vn 0.9421 -0.0000 -0.3352
vn -0.9421 -0.0000 0.3352
vn 0.3256 -0.2470 0.9127
vn -0.3245 0.2602 -0.9094
vn -0.0851 -0.9674 -0.2385
usemtl lambert1
s 1
f 1/1/1 2/2/1 4/3/2 3/4/2
f 3/4/3 4/3/3 6/5/3 5/6/3
f 5/7/4 6/8/4 8/9/5 7/10/5
f 2/2/6 8/11/6 6/12/6 4/3/6
f 7/10/7 1/1/7 3/4/7 5/7/7
f 9/13/8 10/14/8 2/2/1 1/1/1
f 7/10/5 8/9/5 12/15/9 11/16/9
f 10/14/6 12/17/6 8/11/6 2/2/6
f 11/16/7 9/13/7 1/1/7 7/10/7
f 10/14/10 9/13/10 11/18/10 12/19/10
o Head1_Untitled
v -2.318006 2.222515 2.378025
v -1.682207 2.222515 1.988050
v -2.318006 2.968383 2.378025
v -1.682207 2.968383 1.988051
v -2.707981 2.968383 1.742226
v -2.072182 2.968383 1.352252
v -2.707981 2.222515 1.742226
v -2.072182 2.222515 1.352252
vt 0.214239 0.703683
vt 0.355532 0.703684
vt 0.355533 0.844979
vt 0.214239 0.844978
vt 0.355532 0.986273
vt 0.214239 0.986273
vt 0.638122 0.844978
vt 0.496827 0.844978
vt 0.496827 0.703683
vt 0.638122 0.703684
vt 0.214239 0.562390
vt 0.355533 0.562389
vt 0.072944 0.703683
vt 0.072944 0.844979
vn 0.5228 -0.0000 0.8524
vn 0.0000 1.0000 -0.0000
vn -0.5228 0.0000 -0.8524
vn 0.0000 -1.0000 0.0000
vn 0.8524 0.0000 -0.5228
vn -0.8524 0.0000 0.5228
usemtl lambert1
s 1
f 13/20/11 14/21/11 16/22/11 15/23/11
f 15/23/12 16/22/12 18/24/12 17/25/12
f 17/26/13 18/27/13 20/28/13 19/29/13
f 19/30/14 20/31/14 14/21/14 13/20/14
f 14/21/15 20/28/15 18/27/15 16/22/15
f 19/32/16 13/20/16 15/23/16 17/33/16
o ArmLeft1_Untitled.005
v -1.593807 1.782062 1.793961
v -1.281657 1.947861 1.790706
v -1.838668 2.065106 2.123235
v -1.518009 2.320714 2.086392
v -1.983445 2.243209 1.830750
v -1.647439 2.477094 1.784047
v -1.703473 1.910465 1.478921
v -1.385548 2.068089 1.471956
v -1.652653 1.368772 1.814451
v -1.282971 1.378498 1.794843
v -1.677127 1.376581 1.444682
v -1.307446 1.386307 1.425074
vt 0.833430 0.804498
vt 0.902824 0.804498
vt 0.902825 0.908590
vt 0.833430 0.908590
vt 0.902825 0.977986
vt 0.833429 0.977986
vt 0.764034 0.908590
vt 0.694639 0.908590
vt 0.694639 0.804498
vt 0.764034 0.804498
vt 0.972220 0.804498
vt 0.972220 0.908590
vt 0.833430 0.700405
vt 0.902825 0.700405
vt 0.694639 0.700405
vt 0.764034 0.700405
vt 0.972220 0.700405
vt 0.833429 0.631010
vt 0.902825 0.631010
vn 0.1898 -0.2117 0.9587
vn 0.2403 -0.2860 0.9276
vn 0.3717 -0.4828 0.7929
vn -0.4354 0.6840 0.5853
vn -0.3484 0.4709 -0.8105
vn -0.2223 0.2955 -0.9291
vn -0.2001 0.2646 -0.9434
vn 0.9419 0.3131 -0.1215
vn 0.9307 0.3478 -0.1135
vn 0.8217 0.5672 -0.0561
vn -0.9320 -0.3490 0.0980
vn -0.9422 -0.3175 0.1075
vn -0.7641 -0.6451 -0.0055
vn 0.0275 0.0234 0.9993
vn -0.0536 0.0619 -0.9966
vn 0.9831 0.0662 -0.1710
vn -0.9797 0.0307 0.1980
vn 0.0251 -0.9994 -0.0228
usemtl lambert1
s 1
f 21/34/17 22/35/18 24/36/19 23/37/19
f 23/37/20 24/36/20 26/38/20 25/39/20
f 25/40/21 26/41/21 28/42/22 27/43/23
f 22/35/24 28/44/25 26/45/26 24/36/26
f 27/43/27 21/34/28 23/37/29 25/40/29
f 29/46/30 30/47/30 22/35/18 21/34/17
f 27/43/23 28/42/22 32/48/31 31/49/31
f 30/47/32 32/50/32 28/44/25 22/35/24
f 31/49/33 29/46/33 21/34/28 27/43/27
f 30/47/34 29/46/34 31/51/34 32/52/34
o ArmRight1_Untitled.003
v -2.928196 1.712279 2.044758
v -2.560846 1.705693 2.016906
v -2.951585 2.214054 1.991499
v -2.569636 2.221443 2.043287
v -2.960201 2.173969 1.638720
v -2.570729 2.216362 1.672907
v -2.949332 1.613947 1.721268
v -2.579151 1.620533 1.686793
v -2.794421 1.442169 2.434434
v -2.434186 1.442170 2.339506
v -2.854491 1.162704 2.202022
v -2.494256 1.162704 2.107095
vt 0.110906 0.425123
vt 0.180302 0.425123
vt 0.180302 0.529216
vt 0.110906 0.529216
vt 0.180302 0.598611
vt 0.110906 0.598611
vt 0.319092 0.529216
vt 0.249697 0.529216
vt 0.249697 0.425123
vt 0.319092 0.425123
vt 0.041511 0.425123
vt 0.041511 0.529216
vt 0.110906 0.321030
vt 0.180302 0.321030
vt 0.249697 0.321030
vt 0.319092 0.321030
vt 0.041511 0.321030
vt 0.180302 0.251635
vt 0.110906 0.251635
vn 0.0332 0.4289 0.9027
vn 0.0468 0.5081 0.8600
vn -0.0319 0.0254 0.9992
vn -0.0575 0.9965 -0.0615
vn 0.0050 -0.0831 -0.9965
vn -0.0601 -0.4270 -0.9022
vn -0.0585 -0.4188 -0.9062
vn 0.9919 0.0478 -0.1174
vn 0.9940 0.0396 -0.1019
vn 0.9996 0.0006 -0.0278
vn -0.9927 -0.0471 0.1110
vn -0.9900 -0.0539 0.1307
vn -0.9985 -0.0259 0.0492
vn 0.1038 0.8138 0.5717
vn -0.1165 -0.7107 -0.6938
vn 0.9773 0.0878 -0.1931
vn -0.9780 -0.0756 0.1942
vn 0.1933 -0.6516 0.7335
usemtl lambert1
s 1
f 33/53/35 34/54/36 36/55/37 35/56/37
f 35/56/38 36/55/38 38/57/38 37/58/38
f 37/59/39 38/60/39 40/61/40 39/62/41
f 34/54/42 40/61/43 38/60/44 36/55/44
f 39/63/45 33/53/46 35/56/47 37/64/47
f 41/65/48 42/66/48 34/54/36 33/53/35
f 39/62/41 40/61/40 44/67/49 43/68/49
f 42/66/50 44/67/50 40/61/43 34/54/42
f 43/69/51 41/65/51 33/53/46 39/63/45
f 44/70/52 42/66/52 41/65/52 43/71/52
o Body1_Untitled.002
v -2.568468 1.103711 2.052780
v -1.822597 1.103711 2.052780
v -2.568468 2.222515 2.052780
v -1.822597 2.222515 2.052780
v -2.567662 2.222515 1.679846
v -1.821791 2.222515 1.679846
v -2.567662 1.103711 1.679845
v -1.821791 1.103711 1.679845
vt 0.465780 0.391188
vt 0.607623 0.391188
vt 0.607623 0.603950
vt 0.465781 0.603950
vt 0.607776 0.674871
vt 0.465934 0.674871
vt 0.820385 0.603950
vt 0.678543 0.603950
vt 0.678543 0.391188
vt 0.820385 0.391188
vt 0.465934 0.320267
vt 0.607776 0.320268
vt 0.394860 0.391188
vt 0.394860 0.603950
vn 0.0000 -0.0000 1.0000
vn 0.0000 1.0000 0.0000
vn -0.0000 0.0000 -1.0000
vn 0.0000 -1.0000 0.0000
vn 1.0000 0.0000 0.0022
vn -1.0000 0.0000 -0.0022
usemtl lambert1
s 1
f 45/72/53 46/73/53 48/74/53 47/75/53
f 47/75/54 48/74/54 50/76/54 49/77/54
f 49/78/55 50/79/55 52/80/55 51/81/55
f 51/82/56 52/83/56 46/73/56 45/72/56
f 46/73/57 52/80/57 50/79/57 48/74/57
f 51/84/58 45/72/58 47/75/58 49/85/58
o LegRight1_Untitled.004
v -2.483969 0.544310 2.165871
v -2.132616 0.544310 2.040778
v -2.483969 1.103712 2.165873
v -2.132616 1.103712 2.040780
v -2.608925 1.103711 1.814520
v -2.257572 1.103711 1.689428
v -2.608925 0.544309 1.814518
v -2.257572 0.544309 1.689425
v -2.483969 -0.015091 2.165869
v -2.132616 -0.015091 2.040776
v -2.608925 -0.015093 1.814516
v -2.257572 -0.015093 1.689423
vt 0.348146 0.184777
vt 0.417542 0.184777
vt 0.417542 0.288870
vt 0.348146 0.288870
vt 0.417542 0.358265
vt 0.348146 0.358265
vt 0.556332 0.288870
vt 0.486937 0.288870
vt 0.486937 0.184777
vt 0.556332 0.184777
vt 0.278751 0.184777
vt 0.278751 0.288870
vt 0.348146 0.080684
vt 0.417542 0.080684
vt 0.278751 0.080684
vt 0.486937 0.080684
vt 0.556332 0.080684
vt 0.348146 0.011289
vt 0.417542 0.011289
vn 0.3354 -0.0000 0.9421
vn -0.0000 1.0000 -0.0000
vn -0.3354 0.0000 -0.9421
vn 0.9422 0.0000 -0.3351
vn -0.9422 -0.0000 0.3351
vn 0.0000 -1.0000 0.0000
usemtl lambert1
s 1
f 53/86/59 54/87/59 56/88/59 55/89/59
f 55/89/60 56/88/60 58/90/60 57/91/60
f 57/92/61 58/93/61 60/94/61 59/95/61
f 54/87/62 60/94/62 58/93/62 56/88/62
f 59/96/63 53/86/63 55/89/63 57/97/63
f 61/98/59 62/99/59 54/87/59 53/86/59
f 63/100/63 61/98/63 53/86/63 59/96/63
f 59/95/61 60/94/61 64/101/61 63/102/61
f 62/99/62 64/101/62 60/94/62 54/87/62
f 62/99/64 61/98/64 63/103/64 64/104/64
