# Blender v2.79 (sub 0) OBJ File: 'secondScene.blend'
# www.blender.org
mtllib women.mtl
o ArmLeft1.001_Untitled.011
v 0.786379 1.498022 2.781627
v 0.932781 1.498022 3.124623
v 0.786379 2.057423 2.781627
v 0.932781 2.057423 3.124623
v 1.129375 2.057423 2.635225
v 1.275777 2.057423 2.978221
v 1.129375 1.498022 2.635224
v 1.275778 1.498022 2.978221
v 0.786379 0.938620 2.781626
v 0.932781 0.938620 3.124623
v 1.129375 0.938620 2.635224
v 1.275778 0.938620 2.978221
vt 0.833430 0.804498
vt 0.902824 0.804498
vt 0.902825 0.908590
vt 0.833430 0.908590
vt 0.902825 0.977986
vt 0.833429 0.977986
vt 0.764034 0.908590
vt 0.694639 0.908590
vt 0.694639 0.804498
vt 0.764034 0.804498
vt 0.972220 0.804498
vt 0.972220 0.908590
vt 0.833430 0.700405
vt 0.902825 0.700405
vt 0.694639 0.700405
vt 0.764034 0.700405
vt 0.972220 0.700405
vt 0.833429 0.631010
vt 0.902825 0.631010
vn -0.9197 -0.0000 0.3926
vn 0.0000 1.0000 0.0000
vn 0.9197 0.0000 -0.3926
vn 0.3926 -0.0000 0.9197
vn -0.3926 0.0000 -0.9197
vn 0.0000 -1.0000 -0.0000
usemtl women
s 1
f 1/1/1 2/2/1 4/3/1 3/4/1
f 3/4/2 4/3/2 6/5/2 5/6/2
f 5/7/3 6/8/3 8/9/3 7/10/3
f 2/2/4 8/11/4 6/12/4 4/3/4
f 7/10/5 1/1/5 3/4/5 5/7/5
f 9/13/1 10/14/1 2/2/1 1/1/1
f 7/10/3 8/9/3 12/15/3 11/16/3
f 10/14/4 12/17/4 8/11/4 2/2/4
f 11/16/5 9/13/5 1/1/5 7/10/5
f 10/14/6 9/13/6 11/18/6 12/19/6
o ArmRight1.001_Untitled.010
v 0.347172 1.498022 1.752638
v 0.493575 1.498022 2.095634
v 0.347172 2.057423 1.752638
v 0.493575 2.057423 2.095634
v 0.690169 2.057423 1.606235
v 0.836571 2.057423 1.949232
v 0.690169 1.498022 1.606235
v 0.836571 1.498022 1.949232
v 0.347172 0.938620 1.752637
v 0.493575 0.938620 2.095634
v 0.690169 0.938620 1.606235
v 0.836571 0.938620 1.949232
vt 0.110906 0.425123
vt 0.180302 0.425123
vt 0.180302 0.529216
vt 0.110906 0.529216
vt 0.180302 0.598611
vt 0.110906 0.598611
vt 0.319092 0.529216
vt 0.249697 0.529216
vt 0.249697 0.425123
vt 0.319092 0.425123
vt 0.041511 0.425123
vt 0.041511 0.529216
vt 0.110906 0.321030
vt 0.180302 0.321030
vt 0.249697 0.321030
vt 0.319092 0.321030
vt 0.041511 0.321030
vt 0.180302 0.251635
vt 0.110906 0.251635
vn -0.9197 -0.0000 0.3926
vn 0.0000 1.0000 0.0000
vn 0.9197 0.0000 -0.3926
vn 0.3926 -0.0000 0.9197
vn -0.3926 0.0000 -0.9197
vn 0.0000 -1.0000 -0.0000
usemtl women
s 1
f 13/20/7 14/21/7 16/22/7 15/23/7
f 15/23/8 16/22/8 18/24/8 17/25/8
f 17/26/9 18/27/9 20/28/9 19/29/9
f 14/21/10 20/28/10 18/27/10 16/22/10
f 19/30/11 13/20/11 15/23/11 17/31/11
f 21/32/7 22/33/7 14/21/7 13/20/7
f 19/29/9 20/28/9 24/34/9 23/35/9
f 22/33/10 24/34/10 20/28/10 14/21/10
f 23/36/11 21/32/11 13/20/11 19/30/11
f 24/37/12 22/33/12 21/32/12 23/38/12
o Body1.001_Untitled.009
v 0.493416 0.938620 2.095263
v 0.786221 0.938620 2.781257
v 0.493416 2.057423 2.095263
v 0.786221 2.057423 2.781257
v 0.836729 2.057423 1.949602
v 1.129534 2.057423 2.635596
v 0.836729 0.938620 1.949601
v 1.129534 0.938620 2.635596
vt 0.465780 0.391188
vt 0.607623 0.391188
vt 0.607623 0.603950
vt 0.465781 0.603950
vt 0.607776 0.674871
vt 0.465934 0.674871
vt 0.820385 0.603950
vt 0.678543 0.603950
vt 0.678543 0.391188
vt 0.820385 0.391188
vt 0.465934 0.320267
vt 0.607776 0.320268
vt 0.394860 0.391188
vt 0.394860 0.603950
vn -0.9197 -0.0000 0.3926
vn 0.0000 1.0000 0.0000
vn 0.9197 0.0000 -0.3926
vn 0.0000 -1.0000 0.0000
vn 0.3906 -0.0000 0.9206
vn -0.3906 0.0000 -0.9206
usemtl women
s 1
f 25/39/13 26/40/13 28/41/13 27/42/13
f 27/42/14 28/41/14 30/43/14 29/44/14
f 29/45/15 30/46/15 32/47/15 31/48/15
f 31/49/16 32/50/16 26/40/16 25/39/16
f 26/40/17 32/47/17 30/46/17 28/41/17
f 31/51/18 25/39/18 27/42/18 29/52/18
o Head1.001_Untitled.008
v 0.322076 2.057423 2.168835
v 0.614881 2.057423 2.854828
v 0.322076 2.803292 2.168835
v 0.614881 2.803292 2.854828
v 1.008069 2.803292 1.876031
v 1.300873 2.803292 2.562023
v 1.008069 2.057423 1.876031
v 1.300874 2.057423 2.562023
vt 0.214239 0.703683
vt 0.355532 0.703684
vt 0.355533 0.844979
vt 0.214239 0.844978
vt 0.355532 0.986273
vt 0.214239 0.986273
vt 0.638122 0.844978
vt 0.496827 0.844978
vt 0.496827 0.703683
vt 0.638122 0.703684
vt 0.214239 0.562390
vt 0.355533 0.562389
vt 0.072944 0.703683
vt 0.072944 0.844979
vn -0.9197 -0.0000 0.3926
vn 0.0000 1.0000 -0.0000
vn 0.9197 0.0000 -0.3926
vn 0.0000 -1.0000 -0.0000
vn 0.3926 0.0000 0.9197
vn -0.3926 -0.0000 -0.9197
usemtl women
s 1
f 33/53/19 34/54/19 36/55/19 35/56/19
f 35/56/20 36/55/20 38/57/20 37/58/20
f 37/59/21 38/60/21 40/61/21 39/62/21
f 39/63/22 40/64/22 34/54/22 33/53/22
f 34/54/23 40/61/23 38/60/23 36/55/23
f 39/65/24 33/53/24 35/56/24 37/66/24
o LegLeft1.001_Untitled.007
v 0.639977 0.379218 2.438630
v 0.786379 0.379218 2.781627
v 0.639977 0.938620 2.438630
v 0.786379 0.938620 2.781627
v 0.982973 0.938620 2.292228
v 1.129375 0.938620 2.635224
v 0.982973 0.379218 2.292228
v 1.129376 0.379218 2.635224
v 0.639977 -0.180183 2.438630
v 0.786379 -0.180183 2.781627
v 0.982973 -0.180183 2.292228
v 1.129376 -0.180183 2.635224
vt 0.839335 0.203811
vt 0.908730 0.203811
vt 0.908730 0.307904
vt 0.839335 0.307904
vt 0.908730 0.377299
vt 0.839335 0.377299
vt 0.769940 0.307904
vt 0.700545 0.307904
vt 0.700545 0.203811
vt 0.769940 0.203811
vt 0.978126 0.203811
vt 0.978126 0.307904
vt 0.839335 0.099718
vt 0.908731 0.099718
vt 0.700545 0.099718
vt 0.769940 0.099718
vt 0.978126 0.099718
vt 0.839335 0.030323
vt 0.908730 0.030323
vn -0.9197 -0.0000 0.3926
vn -0.0000 1.0000 0.0000
vn 0.9197 0.0000 -0.3926
vn 0.3926 0.0000 0.9197
vn -0.3926 -0.0000 -0.9197
vn 0.0000 -1.0000 -0.0000
usemtl women
s 1
f 41/67/25 42/68/25 44/69/25 43/70/25
f 43/70/26 44/69/26 46/71/26 45/72/26
f 45/73/27 46/74/27 48/75/27 47/76/27
f 42/68/28 48/77/28 46/78/28 44/69/28
f 47/76/29 41/67/29 43/70/29 45/73/29
f 49/79/25 50/80/25 42/68/25 41/67/25
f 47/76/27 48/75/27 52/81/27 51/82/27
f 50/80/28 52/83/28 48/77/28 42/68/28
f 51/82/29 49/79/29 41/67/29 47/76/29
f 50/80/30 49/79/30 51/84/30 52/85/30
o LegRight1.001_Untitled.006
v 0.493575 0.379218 2.095634
v 0.639977 0.379218 2.438630
v 0.493575 0.938620 2.095634
v 0.639977 0.938620 2.438630
v 0.836571 0.938620 1.949232
v 0.982973 0.938620 2.292228
v 0.836571 0.379218 1.949232
v 0.982973 0.379218 2.292228
v 0.493575 -0.180183 2.095634
v 0.639977 -0.180183 2.438630
v 0.836571 -0.180183 1.949232
v 0.982973 -0.180183 2.292228
vt 0.348146 0.184777
vt 0.417542 0.184777
vt 0.417542 0.288870
vt 0.348146 0.288870
vt 0.417542 0.358265
vt 0.348146 0.358265
vt 0.556332 0.288870
vt 0.486937 0.288870
vt 0.486937 0.184777
vt 0.556332 0.184777
vt 0.278751 0.184777
vt 0.278751 0.288870
vt 0.348146 0.080684
vt 0.417542 0.080684
vt 0.278751 0.080684
vt 0.486937 0.080684
vt 0.556332 0.080684
vt 0.348146 0.011289
vt 0.417542 0.011289
vn -0.9197 -0.0000 0.3926
vn -0.0000 1.0000 0.0000
vn 0.9197 0.0000 -0.3926
vn 0.3926 -0.0000 0.9197
vn -0.3926 -0.0000 -0.9197
vn 0.0000 -1.0000 -0.0000
usemtl women
s 1
f 53/86/31 54/87/31 56/88/31 55/89/31
f 55/89/32 56/88/32 58/90/32 57/91/32
f 57/92/33 58/93/33 60/94/33 59/95/33
f 54/87/34 60/94/34 58/93/34 56/88/34
f 59/96/35 53/86/35 55/89/35 57/97/35
f 61/98/31 62/99/31 54/87/31 53/86/31
f 63/100/35 61/98/35 53/86/35 59/96/35
f 59/95/33 60/94/33 64/101/33 63/102/33
f 62/99/34 64/101/34 60/94/34 54/87/34
f 62/99/36 61/98/36 63/103/36 64/104/36
