# Blender v2.79 (sub 0) OBJ File: 'people_sitting.blend'
# www.blender.org
mtllib girlSitting2.mtl
o ArmRight1.001_Untitled.011
v 2.144098 1.085494 0.160442
v 2.841940 1.081374 0.158185
v 2.144100 1.921887 0.745437
v 2.841942 1.892974 0.772268
v 2.144101 2.318529 0.175702
v 2.841943 2.311498 0.214514
v 2.144099 1.445721 -0.429229
v 2.841941 1.449836 -0.426977
v 2.144094 0.164614 -0.179044
v 2.841937 0.164611 -0.179045
v 2.144096 0.411603 -0.830710
v 2.841938 0.411600 -0.830712
vt 0.110906 0.425123
vt 0.180302 0.425123
vt 0.180302 0.529216
vt 0.110906 0.529216
vt 0.180302 0.598611
vt 0.110906 0.598611
vt 0.319092 0.529216
vt 0.249697 0.529216
vt 0.249697 0.425123
vt 0.319092 0.425123
vt 0.041511 0.425123
vt 0.041511 0.529216
vt 0.110906 0.321030
vt 0.180302 0.321030
vt 0.249697 0.321030
vt 0.319092 0.321030
vt 0.041511 0.321030
vt 0.180302 0.251635
vt 0.110906 0.251635
vn -0.0140 -0.4719 0.8815
vn -0.0139 -0.4709 0.8821
vn -0.0282 -0.5881 0.8083
vn -0.0067 0.8104 0.5859
vn 0.0251 0.5834 -0.8118
vn 0.0129 0.4771 -0.8788
vn 0.0128 0.4761 -0.8793
vn 1.0000 -0.0000 0.0000
vn -1.0000 0.0000 -0.0000
vn 0.0005 -0.3456 0.9384
vn 0.0004 0.3622 -0.9321
vn -0.0000 -0.9351 -0.3544
usemtl person3
s 1
f 1/1/1 2/2/2 4/3/3 3/4/3
f 3/4/4 4/3/4 6/5/4 5/6/4
f 5/7/5 6/8/5 8/9/6 7/10/7
f 2/2/8 8/9/8 6/8/8 4/3/8
f 7/11/9 1/1/9 3/4/9 5/12/9
f 9/13/10 10/14/10 2/2/2 1/1/1
f 7/10/7 8/9/6 12/15/11 11/16/11
f 10/14/8 12/15/8 8/9/8 2/2/8
f 11/17/9 9/13/9 1/1/9 7/11/9
f 12/18/12 10/14/12 9/13/12 11/19/12
o ArmLeft1.001_Untitled.010
v 4.299874 0.945695 0.041465
v 4.993276 1.023336 0.027386
v 4.251724 1.614591 0.773260
v 4.938800 1.740609 0.706811
v 4.187827 2.117227 0.296070
v 4.878290 2.203422 0.205423
v 4.243728 1.357223 -0.491085
v 4.938404 1.419878 -0.514269
v 4.383806 0.059864 -0.181130
v 5.077844 0.130022 -0.199772
v 4.346467 0.250325 -0.848004
v 5.040505 0.320484 -0.866646
vt 0.833430 0.804498
vt 0.902824 0.804498
vt 0.902825 0.908590
vt 0.833430 0.908590
vt 0.902825 0.977986
vt 0.833429 0.977986
vt 0.764034 0.908590
vt 0.694639 0.908590
vt 0.694639 0.804498
vt 0.764034 0.804498
vt 0.972220 0.804498
vt 0.972220 0.908590
vt 0.833430 0.700405
vt 0.902825 0.700405
vt 0.694639 0.700405
vt 0.764034 0.700405
vt 0.972220 0.700405
vt 0.833429 0.631010
vt 0.902825 0.631010
vn 0.0997 -0.4871 0.8676
vn 0.1004 -0.4907 0.8655
vn 0.1441 -0.7007 0.6987
vn -0.0291 0.7097 0.7039
vn -0.1325 0.6873 -0.7142
vn -0.0973 0.5060 -0.8570
vn -0.0979 0.5092 -0.8551
vn 0.9945 0.1010 -0.0268
vn -0.9945 -0.1010 0.0268
vn 0.0485 -0.2405 0.9694
vn -0.0574 0.3007 -0.9520
vn 0.0892 -0.9564 -0.2781
usemtl person3
s 1
f 13/20/13 14/21/14 16/22/15 15/23/15
f 15/23/16 16/22/16 18/24/16 17/25/16
f 17/26/17 18/27/17 20/28/18 19/29/19
f 14/21/20 20/30/20 18/31/20 16/22/20
f 19/29/21 13/20/21 15/23/21 17/26/21
f 21/32/22 22/33/22 14/21/14 13/20/13
f 19/29/19 20/28/18 24/34/23 23/35/23
f 22/33/20 24/36/20 20/30/20 14/21/20
f 23/35/21 21/32/21 13/20/21 19/29/21
f 22/33/24 21/32/24 23/37/24 24/38/24
o Head1.001_Untitled.009
v 2.841942 2.459004 0.809847
v 4.237627 2.459004 0.809847
v 2.841942 3.714602 0.200413
v 4.237627 3.714602 0.200413
v 2.841942 3.105168 -1.055185
v 4.237627 3.105168 -1.055185
v 2.841942 1.849570 -0.445752
v 4.237627 1.849570 -0.445752
vt 0.214239 0.703683
vt 0.355532 0.703684
vt 0.355533 0.844979
vt 0.214239 0.844978
vt 0.355532 0.986273
vt 0.214239 0.986273
vt 0.638122 0.844978
vt 0.496827 0.844978
vt 0.496827 0.703683
vt 0.638122 0.703684
vt 0.214239 0.562390
vt 0.355533 0.562389
vt 0.072944 0.703683
vt 0.072944 0.844979
vn 0.0000 0.4367 0.8996
vn 0.0000 0.8996 -0.4367
vn 0.0000 -0.4367 -0.8996
vn 0.0000 -0.8996 0.4367
vn 1.0000 -0.0000 0.0000
vn -1.0000 0.0000 0.0000
usemtl person3
s 1
f 25/39/25 26/40/25 28/41/25 27/42/25
f 27/42/26 28/41/26 30/43/26 29/44/26
f 29/45/27 30/46/27 32/47/27 31/48/27
f 31/49/28 32/50/28 26/40/28 25/39/28
f 26/40/29 32/47/29 30/46/29 28/41/29
f 31/51/30 25/39/30 27/42/30 29/52/30
o Body1.001_Untitled.008
v 2.841187 0.193009 1.094592
v 4.236875 0.192970 1.094563
v 2.841187 2.259073 0.525376
v 4.236875 2.259074 0.525328
v 2.842694 2.052679 -0.140641
v 4.238382 2.052696 -0.140596
v 2.842694 0.104724 0.410348
v 4.238383 0.104695 0.410388
vt 0.465780 0.391188
vt 0.607623 0.391188
vt 0.607623 0.603950
vt 0.465781 0.603950
vt 0.607776 0.674871
vt 0.465934 0.674871
vt 0.820385 0.603950
vt 0.678543 0.603950
vt 0.678543 0.391188
vt 0.820385 0.391188
vt 0.465934 0.320267
vt 0.607776 0.320268
vt 0.394860 0.391188
vt 0.394860 0.603950
vn 0.0000 0.2656 0.9641
vn -0.0000 0.9552 -0.2960
vn 0.0000 -0.2722 -0.9622
vn -0.0000 -0.9918 0.1280
vn 1.0000 0.0006 0.0021
vn -1.0000 -0.0006 -0.0021
usemtl person3
s 1
f 33/53/31 34/54/31 36/55/31 35/56/31
f 35/56/32 36/55/32 38/57/32 37/58/32
f 37/59/33 38/60/33 40/61/33 39/62/33
f 39/63/34 40/64/34 34/54/34 33/53/34
f 34/54/35 40/61/35 38/60/35 36/55/35
f 39/65/36 33/53/36 35/56/36 37/66/36
o LegRight1.001_Untitled.007
v 2.749012 0.571784 1.679384
v 3.443941 0.574823 1.743047
v 2.844440 0.488196 0.640340
v 3.539369 0.491235 0.704003
v 2.842358 -0.207411 0.696109
v 3.537287 -0.204372 0.759772
v 2.746931 -0.123823 1.735153
v 3.441859 -0.120784 1.798816
v 2.653584 0.655372 2.718427
v 3.348513 0.658411 2.782090
v 2.651503 -0.040235 2.774196
v 3.346432 -0.037196 2.837860
vt 0.348146 0.184777
vt 0.417542 0.184777
vt 0.417542 0.288870
vt 0.348146 0.288870
vt 0.417542 0.358265
vt 0.348146 0.358265
vt 0.556332 0.288870
vt 0.486937 0.288870
vt 0.486937 0.184777
vt 0.556332 0.184777
vt 0.278751 0.184777
vt 0.278751 0.288870
vt 0.348146 0.080684
vt 0.417542 0.080684
vt 0.278751 0.080684
vt 0.486937 0.080684
vt 0.556332 0.080684
vt 0.348146 0.011289
vt 0.417542 0.011289
vn 0.0030 0.9968 -0.0799
vn 0.0913 -0.0799 -0.9926
vn -0.0030 -0.9968 0.0799
vn 0.9958 0.0043 0.0911
vn -0.9958 -0.0043 -0.0911
vn -0.0913 0.0799 0.9926
usemtl person3
s 1
f 41/67/37 42/68/37 44/69/37 43/70/37
f 43/70/38 44/69/38 46/71/38 45/72/38
f 45/73/39 46/74/39 48/75/39 47/76/39
f 42/68/40 48/75/40 46/74/40 44/69/40
f 47/77/41 41/67/41 43/70/41 45/78/41
f 49/79/37 50/80/37 42/68/37 41/67/37
f 51/81/41 49/79/41 41/67/41 47/77/41
f 47/76/39 48/75/39 52/82/39 51/83/39
f 50/80/40 52/82/40 48/75/40 42/68/40
f 50/80/42 49/79/42 51/84/42 52/85/42
o LegLeft1.001_Untitled.006
v 3.644619 0.574874 1.744342
v 4.338935 0.571494 1.674360
v 3.539577 0.491361 0.706216
v 4.233893 0.487981 0.636234
v 3.541808 -0.204249 0.761949
v 4.236125 -0.207629 0.691967
v 3.646850 -0.120736 1.800075
v 4.341166 -0.124116 1.730094
v 3.749660 0.658387 2.782469
v 4.443977 0.655007 2.712487
v 3.751892 -0.037223 2.838202
v 4.446208 -0.040602 2.768220
vt 0.839335 0.203811
vt 0.908730 0.203811
vt 0.908730 0.307904
vt 0.839335 0.307904
vt 0.908730 0.377299
vt 0.839335 0.377299
vt 0.769940 0.307904
vt 0.700545 0.307904
vt 0.700545 0.203811
vt 0.769940 0.203811
vt 0.978126 0.203811
vt 0.978126 0.307904
vt 0.839335 0.099718
vt 0.908731 0.099718
vt 0.700545 0.099718
vt 0.769940 0.099718
vt 0.978126 0.099718
vt 0.839335 0.030323
vt 0.908730 0.030323
vn -0.0032 0.9968 -0.0799
vn -0.1003 -0.0798 -0.9917
vn 0.0032 -0.9968 0.0799
vn 0.9949 -0.0048 -0.1003
vn -0.9949 0.0048 0.1003
vn 0.1003 0.0798 0.9917
usemtl person3
s 1
f 53/86/43 54/87/43 56/88/43 55/89/43
f 55/89/44 56/88/44 58/90/44 57/91/44
f 57/92/45 58/93/45 60/94/45 59/95/45
f 54/87/46 60/96/46 58/97/46 56/88/46
f 59/95/47 53/86/47 55/89/47 57/92/47
f 61/98/43 62/99/43 54/87/43 53/86/43
f 59/95/45 60/94/45 64/100/45 63/101/45
f 62/99/46 64/102/46 60/96/46 54/87/46
f 63/101/47 61/98/47 53/86/47 59/95/47
f 62/99/48 61/98/48 63/103/48 64/104/48
