# Blender v2.79 (sub 0) OBJ File: 'people_sitting.blend'
# www.blender.org
mtllib manSitting.mtl
o ArmRight1.002_Untitled.035
v -4.111889 1.430627 -0.851029
v -3.450197 1.356018 -0.934341
v -4.197465 2.273023 -0.805192
v -3.479004 2.297437 -0.662453
v -4.233191 2.283784 -1.416441
v -3.483533 2.399091 -1.341009
v -4.199529 1.290133 -1.350272
v -3.526098 1.249729 -1.458912
v -3.652615 1.360868 -0.043159
v -3.047011 1.185704 -0.335506
v -3.901692 0.750022 -0.194099
v -3.296088 0.574858 -0.486447
vt 0.110906 0.425123
vt 0.180302 0.425123
vt 0.180302 0.529216
vt 0.110906 0.529216
vt 0.180302 0.598611
vt 0.110906 0.598611
vt 0.319092 0.529216
vt 0.249697 0.529216
vt 0.249697 0.425123
vt 0.319092 0.425123
vt 0.041511 0.425123
vt 0.041511 0.529216
vt 0.110906 0.321030
vt 0.180302 0.321030
vt 0.249697 0.321030
vt 0.319092 0.321030
vt 0.041511 0.321030
vt 0.180302 0.251635
vt 0.110906 0.251635
vn 0.0769 0.4158 0.9062
vn 0.1523 0.7598 0.6320
vn -0.0488 -0.1782 0.9828
vn -0.1076 0.9901 0.0897
vn -0.0246 0.0242 -0.9994
vn -0.1864 -0.5208 -0.8331
vn -0.1709 -0.4667 -0.8678
vn 0.9677 -0.0225 -0.2513
vn 0.9805 -0.0139 -0.1958
vn 0.9978 0.0059 -0.0667
vn -0.9779 -0.0138 0.2086
vn -0.9612 0.0229 0.2751
vn -0.9911 -0.0631 0.1175
vn 0.2050 0.9779 0.0412
vn -0.2780 -0.8623 -0.4232
vn 0.9180 -0.0448 -0.3940
vn -0.9209 0.0832 0.3808
vn 0.3235 -0.3492 0.8794
usemtl person1
s 1
f 1/1/1 2/2/2 4/3/3 3/4/3
f 3/4/4 4/3/4 6/5/4 5/6/4
f 5/7/5 6/8/5 8/9/6 7/10/7
f 2/2/8 8/9/9 6/8/10 4/3/10
f 7/11/11 1/1/12 3/4/13 5/12/13
f 9/13/14 10/14/14 2/2/2 1/1/1
f 7/10/7 8/9/6 12/15/15 11/16/15
f 10/14/16 12/15/16 8/9/9 2/2/8
f 11/17/17 9/13/17 1/1/12 7/11/11
f 12/18/18 10/14/18 9/13/18 11/19/18
o ArmLeft1.002_Untitled.034
v -2.083357 2.080415 -0.296996
v -1.418598 2.055909 -0.186063
v -2.070066 2.475461 -1.227167
v -1.327820 2.485049 -1.167708
v -2.067791 1.830095 -1.491761
v -1.309961 1.846571 -1.442922
v -2.045430 1.450805 -0.585886
v -1.374806 1.428891 -0.478949
v -2.570637 1.541654 0.368226
v -1.964636 1.470950 0.700107
v -2.446203 0.950273 0.020385
v -1.840202 0.879569 0.352265
vt 0.833430 0.804498
vt 0.902824 0.804498
vt 0.902825 0.908590
vt 0.833430 0.908590
vt 0.902825 0.977986
vt 0.833429 0.977986
vt 0.764034 0.908590
vt 0.694639 0.908590
vt 0.694639 0.804498
vt 0.764034 0.804498
vt 0.972220 0.804498
vt 0.972220 0.908590
vt 0.833430 0.700405
vt 0.902825 0.700405
vt 0.694639 0.700405
vt 0.764034 0.700405
vt 0.972220 0.700405
vt 0.833429 0.631010
vt 0.902825 0.631010
vn -0.0822 0.8806 0.4667
vn -0.0763 0.8862 0.4570
vn -0.0380 0.9184 0.3939
vn 0.0597 0.3877 -0.9199
vn 0.0391 -0.9195 -0.3910
vn 0.0788 -0.8842 -0.4604
vn 0.0834 -0.8796 -0.4683
vn 0.9623 -0.0507 0.2671
vn 0.9597 -0.0536 0.2757
vn 0.9964 0.0107 0.0843
vn -0.9611 0.0621 -0.2692
vn -0.9686 0.0529 -0.2428
vn -0.9996 -0.0285 -0.0071
vn -0.1211 0.8405 0.5281
vn 0.1235 -0.8353 -0.5357
vn 0.8870 -0.1130 0.4478
vn -0.8618 0.1397 -0.4877
vn -0.4561 -0.5205 0.7218
usemtl person1
s 1
f 13/20/19 14/21/20 16/22/21 15/23/21
f 15/23/22 16/22/22 18/24/22 17/25/22
f 17/26/23 18/27/23 20/28/24 19/29/25
f 14/21/26 20/30/27 18/31/28 16/22/28
f 19/29/29 13/20/30 15/23/31 17/26/31
f 21/32/32 22/33/32 14/21/20 13/20/19
f 19/29/25 20/28/24 24/34/33 23/35/33
f 22/33/34 24/36/34 20/30/27 14/21/26
f 23/35/35 21/32/35 13/20/30 19/29/29
f 22/33/36 21/32/36 23/37/36 24/38/36
o Head1.002_Untitled.033
v -3.474092 2.487397 -0.340492
v -2.078407 2.487397 -0.340492
v -3.474092 3.862041 -0.581920
v -2.078407 3.862041 -0.581920
v -3.474092 3.620613 -1.956565
v -2.078407 3.620613 -1.956565
v -3.474092 2.245968 -1.715137
v -2.078407 2.245968 -1.715137
vt 0.214239 0.703683
vt 0.355532 0.703684
vt 0.355533 0.844979
vt 0.214239 0.844978
vt 0.355532 0.986273
vt 0.214239 0.986273
vt 0.638122 0.844978
vt 0.496827 0.844978
vt 0.496827 0.703683
vt 0.638122 0.703684
vt 0.214239 0.562390
vt 0.355533 0.562389
vt 0.072944 0.703683
vt 0.072944 0.844979
vn 0.0000 0.1730 0.9849
vn 0.0000 0.9849 -0.1730
vn 0.0000 -0.1730 -0.9849
vn 0.0000 -0.9849 0.1730
vn 1.0000 0.0000 0.0000
vn -1.0000 0.0000 0.0000
usemtl person1
s 1
f 25/39/37 26/40/37 28/41/37 27/42/37
f 27/42/38 28/41/38 30/43/38 29/44/38
f 29/45/39 30/46/39 32/47/39 31/48/39
f 31/49/40 32/50/40 26/40/40 25/39/40
f 26/40/41 32/47/41 30/46/41 28/41/41
f 31/51/42 25/39/42 27/42/42 29/52/42
o Body1.002_Untitled.032
v -3.474847 0.269892 -0.730002
v -2.079159 0.269895 -0.729999
v -3.474848 2.357459 -0.679943
v -2.079159 2.357458 -0.679939
v -3.473340 2.375931 -1.377532
v -2.077652 2.375930 -1.377537
v -3.473340 0.277793 -1.427734
v -2.077652 0.277796 -1.427737
vt 0.465780 0.391188
vt 0.607623 0.391188
vt 0.607623 0.603950
vt 0.465781 0.603950
vt 0.607776 0.674871
vt 0.465934 0.674871
vt 0.820385 0.603950
vt 0.678543 0.603950
vt 0.678543 0.391188
vt 0.820385 0.391188
vt 0.465934 0.320267
vt 0.607776 0.320268
vt 0.394860 0.391188
vt 0.394860 0.603950
vn -0.0000 -0.0240 0.9997
vn 0.0000 0.9996 0.0265
vn -0.0000 0.0239 -0.9997
vn 0.0000 -0.9999 -0.0113
vn 1.0000 -0.0001 0.0022
vn -1.0000 0.0001 -0.0022
usemtl person1
s 1
f 33/53/43 34/54/43 36/55/43 35/56/43
f 35/56/44 36/55/44 38/57/44 37/58/44
f 37/59/45 38/60/45 40/61/45 39/62/45
f 39/63/46 40/64/46 34/54/46 33/53/46
f 34/54/47 40/61/47 38/60/47 36/55/47
f 39/65/48 33/53/48 35/56/48 37/66/48
o LegRight1.002_Untitled.031
v -3.569140 0.527760 -0.033275
v -2.873270 0.522545 0.008732
v -3.473355 0.625675 -1.081602
v -2.778451 0.617837 -1.018666
v -3.475332 -0.069144 -1.146459
v -2.780428 -0.076982 -1.083522
v -3.570449 -0.167062 -0.098102
v -2.874579 -0.172277 -0.056095
v -3.572744 0.428084 1.029127
v -2.874997 0.427964 1.030479
v -3.572754 -0.266745 0.964357
v -2.875008 -0.266866 0.965709
vt 0.348146 0.184777
vt 0.417542 0.184777
vt 0.417542 0.288870
vt 0.348146 0.288870
vt 0.417542 0.358265
vt 0.348146 0.358265
vt 0.556332 0.288870
vt 0.486937 0.288870
vt 0.486937 0.184777
vt 0.556332 0.184777
vt 0.278751 0.184777
vt 0.278751 0.288870
vt 0.348146 0.080684
vt 0.417542 0.080684
vt 0.278751 0.080684
vt 0.486937 0.080684
vt 0.556332 0.080684
vt 0.348146 0.011289
vt 0.417542 0.011289
vn 0.0016 0.9957 0.0928
vn 0.0023 0.9957 0.0929
vn 0.0908 0.0923 -0.9916
vn -0.0023 -0.9957 -0.0929
vn -0.0016 -0.9957 -0.0928
vn 0.9989 -0.0059 0.0458
vn 0.9958 -0.0108 0.0906
vn -0.9989 0.0060 -0.0462
vn -0.9959 0.0107 -0.0897
vn 0.0009 0.9957 0.0928
vn -1.0000 0.0012 -0.0027
vn -0.0009 -0.9957 -0.0928
vn 1.0000 -0.0010 0.0010
vn -0.0019 -0.0928 0.9957
usemtl person1
s 1
f 41/67/49 42/68/49 44/69/50 43/70/50
f 43/70/51 44/69/51 46/71/51 45/72/51
f 45/73/52 46/74/52 48/75/53 47/76/53
f 42/68/54 48/75/54 46/74/55 44/69/55
f 47/77/56 41/67/56 43/70/57 45/78/57
f 49/79/58 50/80/58 42/68/49 41/67/49
f 51/81/59 49/79/59 41/67/56 47/77/56
f 47/76/53 48/75/53 52/82/60 51/83/60
f 50/80/61 52/82/61 48/75/54 42/68/54
f 50/80/62 49/79/62 51/84/62 52/85/62
o LegLeft1.002_Untitled.030
v -2.671676 0.522178 0.011566
v -1.976210 0.528545 -0.039204
v -2.775056 0.617574 -1.016793
v -2.080579 0.626172 -1.085348
v -2.772855 -0.077244 -1.081661
v -2.078381 -0.068645 -1.150216
v -2.670047 -0.172644 -0.053268
v -1.974582 -0.166276 -0.104037
v -2.647433 0.427209 1.036522
v -1.950209 0.429243 1.020303
v -2.646909 -0.267621 0.971755
v -1.949692 -0.265587 0.955537
vt 0.839335 0.203811
vt 0.908730 0.203811
vt 0.908730 0.307904
vt 0.839335 0.307904
vt 0.908730 0.377299
vt 0.839335 0.377299
vt 0.769940 0.307904
vt 0.700545 0.307904
vt 0.700545 0.203811
vt 0.769940 0.203811
vt 0.978126 0.203811
vt 0.978126 0.307904
vt 0.839335 0.099718
vt 0.908731 0.099718
vt 0.700545 0.099718
vt 0.769940 0.099718
vt 0.978126 0.099718
vt 0.839335 0.030323
vt 0.908730 0.030323
vn -0.0021 0.9957 0.0929
vn -0.0027 0.9957 0.0929
vn -0.0989 0.0922 -0.9908
vn 0.0027 -0.9957 -0.0929
vn 0.0021 -0.9957 -0.0929
vn 0.9981 0.0078 -0.0608
vn 0.9951 0.0119 -0.0979
vn -0.9981 -0.0078 0.0608
vn -0.9981 -0.0078 0.0607
vn -0.9951 -0.0119 0.0986
vn -0.0015 0.9957 0.0928
vn 0.0015 -0.9957 -0.0928
vn 0.9997 0.0037 -0.0237
vn -0.9997 -0.0037 0.0228
vn 0.0234 -0.0928 0.9954
usemtl person1
s 1
f 53/86/63 54/87/63 56/88/64 55/89/64
f 55/89/65 56/88/65 58/90/65 57/91/65
f 57/92/66 58/93/66 60/94/67 59/95/67
f 54/87/68 60/96/68 58/97/69 56/88/69
f 59/95/70 53/86/71 55/89/72 57/92/72
f 61/98/73 62/99/73 54/87/63 53/86/63
f 59/95/67 60/94/67 64/100/74 63/101/74
f 62/99/75 64/102/75 60/96/68 54/87/68
f 63/101/76 61/98/76 53/86/71 59/95/70
f 62/99/77 61/98/77 63/103/77 64/104/77
