# Blender v2.79 (sub 0) OBJ File: 'firstscene.blend'
# www.blender.org
mtllib laptop.mtl
o laptop_Cube.001
v 2.521153 1.922773 0.833808
v 2.521153 1.998804 0.833808
v 2.521153 1.922773 0.007447
v 2.521153 1.998804 0.007447
v 3.347515 1.922773 0.833808
v 3.347515 1.998804 0.833808
v 3.347515 1.922773 0.007447
v 3.347515 1.998804 0.007447
v 2.522549 1.957772 0.823429
v 2.522549 2.736076 1.077168
v 2.522549 1.972472 0.778338
v 2.522549 2.750777 1.032076
v 3.348549 1.957772 0.823429
v 3.348549 2.736076 1.077168
v 3.348549 1.972472 0.778338
v 3.348549 2.750777 1.032076
vn -1.0000 0.0000 0.0000
vn 0.0000 0.0000 -1.0000
vn 1.0000 0.0000 0.0000
vn 0.0000 0.0000 1.0000
vn 0.0000 -1.0000 0.0000
vn 0.0000 1.0000 0.0000
vn 0.0000 0.3100 -0.9508
vn 0.0000 -0.3100 0.9508
vn 0.0000 -0.9508 -0.3100
vn 0.0000 0.9508 0.3100
usemtl laptop
s off
f 1//1 2//1 4//1 3//1
f 3//2 4//2 8//2 7//2
f 7//3 8//3 6//3 5//3
f 5//4 6//4 2//4 1//4
f 3//5 7//5 5//5 1//5
f 8//6 4//6 2//6 6//6
f 9//1 10//1 12//1 11//1
f 11//7 12//7 16//7 15//7
f 15//3 16//3 14//3 13//3
f 13//8 14//8 10//8 9//8
f 11//9 15//9 13//9 9//9
f 16//10 12//10 10//10 14//10
