# Blender v2.79 (sub 0) OBJ File: 'firstscene.blend'
# www.blender.org
mtllib redguy.mtl
o ArmLeft1.001_Untitled.011
v 3.323765 2.243591 -0.546933
v 3.793015 2.277535 -0.482006
v 3.220487 2.884404 -0.491294
v 3.774539 2.821593 -0.563469
v 3.221118 2.876254 -0.954014
v 3.779521 2.757301 -0.958314
v 3.334348 2.106999 -0.854370
v 3.805235 2.119815 -0.763900
v 3.251215 2.437354 -0.116619
v 3.663192 2.508570 0.098945
v 3.285943 1.989106 -0.047275
v 3.697920 2.060323 0.168289
vt 0.833430 0.804498
vt 0.902824 0.804498
vt 0.902825 0.908590
vt 0.833430 0.908590
vt 0.902825 0.977986
vt 0.833429 0.977986
vt 0.764034 0.908590
vt 0.694639 0.908590
vt 0.694639 0.804498
vt 0.764034 0.804498
vt 0.972220 0.804498
vt 0.972220 0.908590
vt 0.833430 0.700405
vt 0.902825 0.700405
vt 0.694639 0.700405
vt 0.764034 0.700405
vt 0.972220 0.700405
vt 0.833429 0.631010
vt 0.902825 0.631010
vn 0.0178 0.8187 0.5740
vn 0.0178 0.8204 0.5715
vn 0.0077 0.0226 0.9997
vn 0.1552 0.9845 -0.0821
vn 0.0614 -0.1984 -0.9782
vn 0.1178 -0.7598 -0.6394
vn 0.1125 -0.6958 -0.7094
vn 0.9949 0.0300 0.0968
vn 0.9979 0.0352 0.0541
vn 0.9991 0.0402 0.0122
vn -0.9929 -0.1171 -0.0193
vn -0.9951 -0.0846 -0.0507
vn -0.9884 -0.1513 0.0140
vn 0.0125 0.9228 -0.3851
vn 0.1251 -0.9881 -0.0896
vn 0.9881 0.0232 0.1522
vn -0.9947 -0.0384 -0.0949
vn -0.4747 0.0985 0.8746
usemtl Material.003
s 1
f 1/1/1 2/2/2 4/3/3 3/4/3
f 3/4/4 4/3/4 6/5/4 5/6/4
f 5/7/5 6/8/5 8/9/6 7/10/7
f 2/2/8 8/11/9 6/12/10 4/3/10
f 7/10/11 1/1/12 3/4/13 5/7/13
f 9/13/14 10/14/14 2/2/2 1/1/1
f 7/10/7 8/9/6 12/15/15 11/16/15
f 10/14/16 12/17/16 8/11/9 2/2/8
f 11/16/17 9/13/17 1/1/12 7/10/11
f 10/14/18 9/13/18 11/18/18 12/19/18
o Body1.001_Untitled.010
v 2.341040 1.487657 -0.576358
v 3.286186 1.487657 -0.576358
v 2.341039 2.905373 -0.576358
v 3.286186 2.905373 -0.576358
v 2.342061 2.905373 -1.048930
v 3.287207 2.905373 -1.048930
v 2.342061 1.487657 -1.048930
v 3.287207 1.487657 -1.048930
vt 0.465780 0.391188
vt 0.607623 0.391188
vt 0.607623 0.603950
vt 0.465781 0.603950
vt 0.607776 0.674871
vt 0.465934 0.674871
vt 0.820385 0.603950
vt 0.678543 0.603950
vt 0.678543 0.391188
vt 0.820385 0.391188
vt 0.465934 0.320267
vt 0.607776 0.320268
vt 0.394860 0.391188
vt 0.394860 0.603950
vn 0.0000 -0.0000 1.0000
vn 0.0000 1.0000 0.0000
vn 0.0000 0.0000 -1.0000
vn 0.0000 -1.0000 0.0000
vn 1.0000 0.0000 0.0022
vn -1.0000 -0.0000 -0.0022
usemtl redman
s 1
f 13/20/19 14/21/19 16/22/19 15/23/19
f 15/23/20 16/22/20 18/24/20 17/25/20
f 17/26/21 18/27/21 20/28/21 19/29/21
f 19/30/22 20/31/22 14/21/22 13/20/22
f 14/21/23 20/28/23 18/27/23 16/22/23
f 19/32/24 13/20/24 15/23/24 17/33/24
o ArmRight1.001_Untitled.009
v 2.205048 2.448994 -0.188315
v 2.543715 2.354292 -0.444664
v 1.904917 2.859700 -0.620412
v 2.342200 2.853378 -0.836166
v 1.732520 2.506847 -0.836052
v 2.176802 2.505439 -1.103805
v 2.021005 2.087965 -0.317423
v 2.362306 1.995111 -0.593340
v 2.857964 2.347576 0.110899
v 3.038835 2.110466 -0.250257
v 2.637704 1.961119 0.250874
v 2.818575 1.724010 -0.110282
vt 0.110906 0.425123
vt 0.180302 0.425123
vt 0.180302 0.529216
vt 0.110906 0.529216
vt 0.180302 0.598611
vt 0.110906 0.598611
vt 0.319092 0.529216
vt 0.249697 0.529216
vt 0.249697 0.425123
vt 0.319092 0.425123
vt 0.041511 0.425123
vt 0.041511 0.529216
vt 0.110906 0.321030
vt 0.180302 0.321030
vt 0.249697 0.321030
vt 0.319092 0.321030
vt 0.041511 0.321030
vt 0.180302 0.251635
vt 0.110906 0.251635
vn 0.4288 0.8597 0.2776
vn 0.4151 0.9017 0.1208
vn 0.4244 0.7250 0.5424
vn -0.3646 0.6413 -0.6751
vn -0.4292 -0.7598 -0.4884
vn -0.4540 -0.8694 -0.1953
vn -0.4537 -0.8643 -0.2171
vn 0.6974 -0.1870 -0.6919
vn 0.6843 -0.1911 -0.7037
vn 0.8550 -0.1226 -0.5040
vn -0.6823 0.1929 0.7051
vn -0.6542 0.2096 0.7267
vn -0.7979 0.1125 0.5921
vn 0.3571 0.9144 -0.1909
vn -0.4355 -0.8939 0.1061
vn 0.4714 -0.2440 -0.8475
vn -0.5053 0.2851 0.8145
vn 0.7910 -0.2483 0.5592
usemtl redman
s 1
f 21/34/25 22/35/26 24/36/27 23/37/27
f 23/37/28 24/36/28 26/38/28 25/39/28
f 25/40/29 26/41/29 28/42/30 27/43/31
f 22/35/32 28/42/33 26/41/34 24/36/34
f 27/44/35 21/34/36 23/37/37 25/45/37
f 29/46/38 30/47/38 22/35/26 21/34/25
f 27/43/31 28/42/30 32/48/39 31/49/39
f 30/47/40 32/48/40 28/42/33 22/35/32
f 31/50/41 29/46/41 21/34/36 27/44/35
f 32/51/42 30/47/42 29/46/42 31/52/42
o LegRight1.001_Untitled.008
v 2.341551 0.778799 -0.576358
v 2.814123 0.778799 -0.576358
v 2.341551 1.487657 -0.576358
v 2.814123 1.487657 -0.576358
v 2.341551 1.487657 -1.048930
v 2.814123 1.487657 -1.048930
v 2.341551 0.778799 -1.048931
v 2.814123 0.778799 -1.048930
v 2.341552 0.069941 -0.576359
v 2.814123 0.069941 -0.576359
v 2.341552 0.069941 -1.048931
v 2.814123 0.069941 -1.048931
vt 0.348146 0.184777
vt 0.417542 0.184777
vt 0.417542 0.288870
vt 0.348146 0.288870
vt 0.417542 0.358265
vt 0.348146 0.358265
vt 0.556332 0.288870
vt 0.486937 0.288870
vt 0.486937 0.184777
vt 0.556332 0.184777
vt 0.278751 0.184777
vt 0.278751 0.288870
vt 0.348146 0.080684
vt 0.417542 0.080684
vt 0.278751 0.080684
vt 0.486937 0.080684
vt 0.556332 0.080684
vt 0.348146 0.011289
vt 0.417542 0.011289
vn 0.0000 -0.0000 1.0000
vn -0.0000 1.0000 0.0000
vn -0.0000 0.0000 -1.0000
vn 1.0000 0.0000 0.0000
vn -1.0000 -0.0000 -0.0000
vn 0.0000 -1.0000 -0.0000
usemtl redman
s 1
f 33/53/43 34/54/43 36/55/43 35/56/43
f 35/56/44 36/55/44 38/57/44 37/58/44
f 37/59/45 38/60/45 40/61/45 39/62/45
f 34/54/46 40/61/46 38/60/46 36/55/46
f 39/63/47 33/53/47 35/56/47 37/64/47
f 41/65/43 42/66/43 34/54/43 33/53/43
f 43/67/47 41/65/47 33/53/47 39/63/47
f 39/62/45 40/61/45 44/68/45 43/69/45
f 42/66/46 44/68/46 40/61/46 34/54/46
f 42/66/48 41/65/48 43/70/48 44/71/48
o Head1.001_Untitled.007
v 2.182081 2.833843 -0.607572
v 3.017360 2.933108 -0.176583
v 2.073769 3.772739 -0.613903
v 2.909049 3.872004 -0.182914
v 2.502574 3.816535 -1.455037
v 3.337854 3.915799 -1.024047
v 2.610886 2.877639 -1.448705
v 3.446166 2.976903 -1.017716
vt 0.214239 0.703683
vt 0.355532 0.703684
vt 0.355533 0.844979
vt 0.214239 0.844978
vt 0.355532 0.986273
vt 0.214239 0.986273
vt 0.638122 0.844978
vt 0.496827 0.844978
vt 0.496827 0.703683
vt 0.638122 0.703684
vt 0.214239 0.562390
vt 0.355533 0.562389
vt 0.072944 0.703683
vt 0.072944 0.844979
vn -0.4537 -0.0463 0.8900
vn -0.1146 0.9934 -0.0067
vn 0.4537 0.0463 -0.8900
vn 0.1146 -0.9934 0.0067
vn 0.8838 0.1050 0.4560
vn -0.8838 -0.1050 -0.4560
usemtl redman
s 1
f 45/72/49 46/73/49 48/74/49 47/75/49
f 47/75/50 48/74/50 50/76/50 49/77/50
f 49/78/51 50/79/51 52/80/51 51/81/51
f 51/82/52 52/83/52 46/73/52 45/72/52
f 46/73/53 52/80/53 50/79/53 48/74/53
f 51/84/54 45/72/54 47/75/54 49/85/54
o LegLeft1.001_Untitled.006
v 2.816893 0.778699 -0.582633
v 3.289465 0.778699 -0.582633
v 2.816893 1.487557 -0.582633
v 3.289465 1.487557 -0.582633
v 2.816893 1.487557 -1.055205
v 3.289465 1.487557 -1.055205
v 2.816893 0.778699 -1.055205
v 3.289465 0.778699 -1.055205
v 2.816893 0.069841 -0.582633
v 3.289465 0.069841 -0.582633
v 2.816893 0.069841 -1.055205
v 3.289465 0.069841 -1.055205
vt 0.839335 0.203811
vt 0.908730 0.203811
vt 0.908730 0.307904
vt 0.839335 0.307904
vt 0.908730 0.377299
vt 0.839335 0.377299
vt 0.769940 0.307904
vt 0.700545 0.307904
vt 0.700545 0.203811
vt 0.769940 0.203811
vt 0.978126 0.203811
vt 0.978126 0.307904
vt 0.839335 0.099718
vt 0.908731 0.099718
vt 0.700545 0.099718
vt 0.769940 0.099718
vt 0.978126 0.099718
vt 0.839335 0.030323
vt 0.908730 0.030323
vn 0.0000 -0.0000 1.0000
vn 0.0000 1.0000 0.0000
vn -0.0000 0.0000 -1.0000
vn 1.0000 0.0000 0.0000
vn -1.0000 0.0000 0.0000
vn 0.0000 -1.0000 -0.0000
usemtl redman
s 1
f 53/86/55 54/87/55 56/88/55 55/89/55
f 55/89/56 56/88/56 58/90/56 57/91/56
f 57/92/57 58/93/57 60/94/57 59/95/57
f 54/87/58 60/96/58 58/97/58 56/88/58
f 59/95/59 53/86/59 55/89/59 57/92/59
f 61/98/55 62/99/55 54/87/55 53/86/55
f 59/95/57 60/94/57 64/100/57 63/101/57
f 62/99/58 64/102/58 60/96/58 54/87/58
f 63/101/59 61/98/59 53/86/59 59/95/59
f 62/99/60 61/98/60 63/103/60 64/104/60
